# xmcd
#
# Track frame offsets:
#	150
#	14438
#	30478
#	44450
#	59753
#	72544
#	85334
#	98977
#	113528
#	127048
#	140648
#	153268
#
# Disc length: 2228 seconds
#
# Revision: 0
# Processed by: cddbd v1.5.1PL0 Copyright (c) Steve Scherf et al.
# Submitted via: dBpowerAMP V4.0
#
DISCID=a908b20c
DTITLE=Janez and Irina - Solange die sich dreht
DYEAR=2002
DGENRE=German
TTITLE0=Ciao, bellaItalia
TTITLE1=Leben, lieben, glücklich sein
TTITLE2=Solang die Welt sich dreht
TTITLE3=Fröhliches Akkordeon
TTITLE4=Auf Regen folgt doch wieder Sonnenschein
TTITLE5=Hast du heut' schon mal gelacht
TTITLE6=Schwungvoll übern Reschenpass
TTITLE7=Die Zeit vergeht, die Liebe bleibt
TTITLE8=Ein ganzes Jahr lang Sommer
TTITLE9=Klatsch mit
TTITLE10=Fang noch heute zu leben an
TTITLE11=Musik für dich und mich
EXTD=
EXTT0=
EXTT1=
EXTT2=
EXTT3=
EXTT4=
EXTT5=
EXTT6=
EXTT7=
EXTT8=
EXTT9=
EXTT10=
EXTT11=
PLAYORDER=
